<svg xmlns="http://www.w3.org/2000/svg" viewBox="0 0 256 256" role="img" aria-labelledby="title desc">
  <title id="title">Cloud Evolvers favicon</title>
  <desc id="desc">Cloud, mountain, and training path mark in Cloud Evolvers colors</desc>
  <rect width="256" height="256" rx="56" fill="#293141"/>
  <circle cx="128" cy="128" r="82" fill="none" stroke="#74d6b4" stroke-width="14"/>
  <path d="M64 136c10-24 29-36 56-36 23 0 42 10 54 30 18 2 29 14 29 30 0 18-15 30-36 30H77c-24 0-39-13-39-31 0-13 9-22 26-23Z" fill="#ffffff"/>
  <path d="M69 181l38-58 25 36 18-27 37 49H69Z" fill="#74d6b4"/>
  <path d="M107 123l25 36 18-27 14 18-22-7-11 16-24-36Z" fill="#ffffff" opacity=".92"/>
  <path d="M154 80v45" stroke="#f2c94c" stroke-width="8" stroke-linecap="round"/>
  <path d="M158 80h36l-10 15 10 15h-36V80Z" fill="#f2c94c"/>
  <path d="M67 137c10-16 26-24 48-24 19 0 35 8 47 22" fill="none" stroke="#293141" stroke-width="8" stroke-linecap="round"/>
</svg>
